<svg xmlns="http://www.w3.org/2000/svg" width="1024" height="512" viewBox="0 0 1024 512" role="img" aria-label="권갑 마스터 무기">
<defs>
  <linearGradient id="steel" x1="0" y1="0" x2="1" y2="1"><stop stop-color="#161d24"/><stop offset=".12" stop-color="#7c8997"/><stop offset=".29" stop-color="#f7fbff"/><stop offset=".43" stop-color="#8996a4"/><stop offset=".58" stop-color="#dce5ed"/><stop offset=".76" stop-color="#4a5663"/><stop offset="1" stop-color="#11171d"/></linearGradient>
  <linearGradient id="steelEdge" x1="0" x2="1"><stop stop-color="#7f8d9a"/><stop offset=".18" stop-color="#fff"/><stop offset=".5" stop-color="#b9c6d0"/><stop offset=".8" stop-color="#f9fbff"/><stop offset="1" stop-color="#596574"/></linearGradient>
  <linearGradient id="blackSteel" x1="0" y1="0" x2="1" y2="1"><stop stop-color="#07090d"/><stop offset=".2" stop-color="#313a45"/><stop offset=".46" stop-color="#0d1218"/><stop offset=".72" stop-color="#4e5964"/><stop offset="1" stop-color="#07090c"/></linearGradient>
  <linearGradient id="gold" x1="0" y1="0" x2="1" y2="1"><stop stop-color="#3c270c"/><stop offset=".17" stop-color="#9d6c25"/><stop offset=".38" stop-color="#f2cf70"/><stop offset=".55" stop-color="#fff0a8"/><stop offset=".75" stop-color="#b77a28"/><stop offset="1" stop-color="#42290c"/></linearGradient>
  <linearGradient id="jade" x1="0" y1="0" x2="1" y2="1"><stop stop-color="#123329"/><stop offset=".35" stop-color="#3e8e70"/><stop offset=".62" stop-color="#9adac0"/><stop offset="1" stop-color="#16382c"/></linearGradient>
  <linearGradient id="wood" x1="0" y1="0" x2="1" y2="0"><stop stop-color="#140b08"/><stop offset=".18" stop-color="#4f2b1d"/><stop offset=".5" stop-color="#99603a"/><stop offset=".72" stop-color="#4d2a1a"/><stop offset="1" stop-color="#130a07"/></linearGradient>
  <linearGradient id="leather" x1="0" y1="0" x2="1" y2="1"><stop stop-color="#180b08"/><stop offset=".3" stop-color="#743b28"/><stop offset=".54" stop-color="#b06a47"/><stop offset=".8" stop-color="#4c241a"/><stop offset="1" stop-color="#130908"/></linearGradient>
  <radialGradient id="gem"><stop stop-color="#fffbe4"/><stop offset=".18" stop-color="#9ee9ff"/><stop offset=".45" stop-color="#3f8fb1"/><stop offset="1" stop-color="#163244"/></radialGradient>
  <pattern id="damascus" width="36" height="20" patternUnits="userSpaceOnUse" patternTransform="rotate(-8)"><path d="M-8 5 Q8 -2 24 5 T56 5M-8 15 Q8 8 24 15 T56 15" fill="none" stroke="#fff" stroke-opacity=".09" stroke-width="2"/></pattern>
  <pattern id="wrap" width="20" height="20" patternUnits="userSpaceOnUse" patternTransform="rotate(35)"><path d="M0 0V20" stroke="#d5a570" stroke-width="5"/><path d="M8 0V20" stroke="#5b2e21" stroke-width="5"/></pattern>
  <filter id="shadow" x="-30%" y="-30%" width="160%" height="180%"><feGaussianBlur in="SourceAlpha" stdDeviation="8"/><feOffset dy="11"/><feComponentTransfer><feFuncA type="linear" slope=".55"/></feComponentTransfer><feMerge><feMergeNode/><feMergeNode in="SourceGraphic"/></feMerge></filter>
  <filter id="soft"><feGaussianBlur stdDeviation="5"/></filter>
</defs><ellipse cx="512" cy="420" rx="370" ry="38" fill="#000" opacity=".22" filter="url(#soft)"/><g filter="url(#shadow)">
<path d="M242 174 C282 130 349 119 397 155 L443 194 C476 160 535 158 570 194 L642 270 C680 311 652 374 601 387 L388 401 C337 404 302 368 286 330 L221 230 C205 207 214 190 242 174Z" fill="url(#blackSteel)" stroke="#d7e0e7" stroke-width="7"/>
<rect x="286" y="132" width="99" height="135" rx="35" fill="url(#steel)" stroke="#eef5fb" stroke-width="6"/><rect x="387" y="113" width="102" height="145" rx="35" fill="url(#steel)" stroke="#eef5fb" stroke-width="6"/><rect x="490" y="137" width="92" height="132" rx="33" fill="url(#steel)" stroke="#eef5fb" stroke-width="6"/>
<path d="M253 225 L350 354 L594 354" fill="none" stroke="url(#gold)" stroke-width="21"/><circle cx="367" cy="333" r="26" fill="url(#gold)" stroke="#3d250d" stroke-width="6"/><circle cx="367" cy="333" r="11" fill="url(#gem)"/>
<path d="M307 167v77M411 149v82M535 172v73" stroke="#fff" stroke-width="4" opacity=".28"/>
<g fill="none" stroke="#e0c171" stroke-width="4" opacity=".66"><path d="M290 286 Q360 245 430 286 T570 286"/><path d="M305 306 Q372 267 441 306 T575 306"/></g>
</g></svg>