<svg xmlns="http://www.w3.org/2000/svg" width="1024" height="512" viewBox="0 0 1024 512" role="img" aria-label="왜도 마스터 무기">
<defs>
  <linearGradient id="steel" x1="0" y1="0" x2="1" y2="1"><stop stop-color="#161d24"/><stop offset=".12" stop-color="#7c8997"/><stop offset=".29" stop-color="#f7fbff"/><stop offset=".43" stop-color="#8996a4"/><stop offset=".58" stop-color="#dce5ed"/><stop offset=".76" stop-color="#4a5663"/><stop offset="1" stop-color="#11171d"/></linearGradient>
  <linearGradient id="steelEdge" x1="0" x2="1"><stop stop-color="#7f8d9a"/><stop offset=".18" stop-color="#fff"/><stop offset=".5" stop-color="#b9c6d0"/><stop offset=".8" stop-color="#f9fbff"/><stop offset="1" stop-color="#596574"/></linearGradient>
  <linearGradient id="blackSteel" x1="0" y1="0" x2="1" y2="1"><stop stop-color="#07090d"/><stop offset=".2" stop-color="#313a45"/><stop offset=".46" stop-color="#0d1218"/><stop offset=".72" stop-color="#4e5964"/><stop offset="1" stop-color="#07090c"/></linearGradient>
  <linearGradient id="gold" x1="0" y1="0" x2="1" y2="1"><stop stop-color="#3c270c"/><stop offset=".17" stop-color="#9d6c25"/><stop offset=".38" stop-color="#f2cf70"/><stop offset=".55" stop-color="#fff0a8"/><stop offset=".75" stop-color="#b77a28"/><stop offset="1" stop-color="#42290c"/></linearGradient>
  <linearGradient id="jade" x1="0" y1="0" x2="1" y2="1"><stop stop-color="#123329"/><stop offset=".35" stop-color="#3e8e70"/><stop offset=".62" stop-color="#9adac0"/><stop offset="1" stop-color="#16382c"/></linearGradient>
  <linearGradient id="wood" x1="0" y1="0" x2="1" y2="0"><stop stop-color="#140b08"/><stop offset=".18" stop-color="#4f2b1d"/><stop offset=".5" stop-color="#99603a"/><stop offset=".72" stop-color="#4d2a1a"/><stop offset="1" stop-color="#130a07"/></linearGradient>
  <linearGradient id="leather" x1="0" y1="0" x2="1" y2="1"><stop stop-color="#180b08"/><stop offset=".3" stop-color="#743b28"/><stop offset=".54" stop-color="#b06a47"/><stop offset=".8" stop-color="#4c241a"/><stop offset="1" stop-color="#130908"/></linearGradient>
  <radialGradient id="gem"><stop stop-color="#fffbe4"/><stop offset=".18" stop-color="#9ee9ff"/><stop offset=".45" stop-color="#3f8fb1"/><stop offset="1" stop-color="#163244"/></radialGradient>
  <pattern id="damascus" width="36" height="20" patternUnits="userSpaceOnUse" patternTransform="rotate(-8)"><path d="M-8 5 Q8 -2 24 5 T56 5M-8 15 Q8 8 24 15 T56 15" fill="none" stroke="#fff" stroke-opacity=".09" stroke-width="2"/></pattern>
  <pattern id="wrap" width="20" height="20" patternUnits="userSpaceOnUse" patternTransform="rotate(35)"><path d="M0 0V20" stroke="#d5a570" stroke-width="5"/><path d="M8 0V20" stroke="#5b2e21" stroke-width="5"/></pattern>
  <filter id="shadow" x="-30%" y="-30%" width="160%" height="180%"><feGaussianBlur in="SourceAlpha" stdDeviation="8"/><feOffset dy="11"/><feComponentTransfer><feFuncA type="linear" slope=".55"/></feComponentTransfer><feMerge><feMergeNode/><feMergeNode in="SourceGraphic"/></feMerge></filter>
  <filter id="soft"><feGaussianBlur stdDeviation="5"/></filter>
</defs><ellipse cx="512" cy="420" rx="370" ry="38" fill="#000" opacity=".22" filter="url(#soft)"/><g filter="url(#shadow)" transform="rotate(-11 512 256)">
<path d="M174 312 C383 265 623 201 865 118 C830 158 786 189 718 217 C550 286 365 330 199 358 Z" fill="url(#steel)" stroke="#edf3f7" stroke-width="5"/>
<path d="M215 330 C397 288 623 226 813 153" stroke="#fff" stroke-width="5" stroke-opacity=".58"/>
<path d="M230 318 C421 273 626 218 778 162" fill="none" stroke="#8794a0" stroke-width="3" stroke-dasharray="17 12" opacity=".8"/>
<ellipse cx="193" cy="335" rx="30" ry="54" transform="rotate(-11 193 335)" fill="#12161c" stroke="url(#gold)" stroke-width="13"/><circle cx="193" cy="335" r="15" fill="url(#gem)"/>
<rect x="54" y="322" width="146" height="52" rx="19" fill="url(#blackSteel)" stroke="#513427" stroke-width="6"/><rect x="62" y="329" width="132" height="38" rx="14" fill="url(#wrap)" opacity=".86"/>
<circle cx="54" cy="348" r="22" fill="url(#gold)"/><path d="M357 291 C470 265 582 233 678 202" fill="none" stroke="#d9b758" stroke-width="3" stroke-dasharray="14 12" opacity=".66"/>
</g></svg>